<svg width="26" height="26" viewBox="0 0 26 26" fill="none" xmlns="http://www.w3.org/2000/svg">
<path d="M11.3748 26C12.1666 26.0003 12.9313 25.7115 13.5252 25.1879C14.1191 24.6643 14.5015 23.9418 14.6005 23.1562C14.6281 22.9336 14.4428 22.75 14.2186 22.75H8.5311C8.30685 22.75 8.1216 22.9336 8.14922 23.1562C8.2482 23.9418 8.63055 24.6643 9.22448 25.1879C9.81841 25.7115 10.5831 26.0003 11.3748 26Z" fill="#8A95BF"/>
<path fill-rule="evenodd" clip-rule="evenodd" d="M11.3749 2.4375C9.86646 2.4375 8.41982 3.03672 7.35321 4.10333C6.2866 5.16994 5.68738 6.61658 5.68738 8.125V12.9139C5.68738 13.4761 5.52163 14.0237 5.20963 14.4901L2.44225 18.6436C2.43906 18.6484 2.43736 18.6541 2.43738 18.6599L2.439 18.6696C2.439 18.6729 2.44225 18.6761 2.4455 18.6794C2.44825 18.6822 2.45158 18.6844 2.45525 18.6859L2.46663 18.6875H20.2831L20.2945 18.6859C20.2982 18.6845 20.3015 18.6823 20.3043 18.6794C20.3071 18.6767 20.3094 18.6733 20.3108 18.6696L20.3124 18.6583C20.3125 18.6525 20.3108 18.6468 20.3075 18.642L17.5401 14.4918C17.2289 14.025 17.0627 13.4765 17.0624 12.9155V8.125C17.0624 6.61658 16.4632 5.16994 15.3965 4.10333C14.3299 3.03672 12.8833 2.4375 11.3749 2.4375ZM3.24988 8.125C3.24988 5.97012 4.1059 3.90349 5.62964 2.37976C7.15337 0.856024 9.21999 0 11.3749 0C13.5298 0 15.5964 0.856024 17.1201 2.37976C18.6439 3.90349 19.4999 5.97012 19.4999 8.125V12.9139C19.4999 12.9951 19.5243 13.0731 19.5681 13.1398L22.3355 17.2916C22.5827 17.6631 22.7245 18.0947 22.7459 18.5404C22.7672 18.9861 22.6672 19.4292 22.4566 19.8226C22.246 20.2159 21.9326 20.5448 21.5499 20.7742C21.1671 21.0035 20.7293 21.1248 20.2831 21.125H2.46663C2.02016 21.125 1.58208 21.0038 1.19908 20.7743C0.816078 20.5449 0.50253 20.2158 0.291867 19.8222C0.0812034 19.4285 -0.0186768 18.9851 0.00287665 18.5392C0.0244301 18.0932 0.166609 17.6615 0.414253 17.29L3.18163 13.1398C3.22622 13.0729 3.24998 12.9943 3.24988 12.9139V8.125Z" fill="#8A95BF"/>
</svg>
