<svg width="36" height="24" viewBox="0 0 36 24" fill="none" xmlns="http://www.w3.org/2000/svg">
<path d="M35.9594 15.1594C35.7608 15.3124 35.5163 15.3939 35.2656 15.3906C35.0861 15.3906 34.9091 15.3488 34.7485 15.2685C34.588 15.1883 34.4483 15.0717 34.3406 14.9281C33.6437 13.9913 32.7366 13.2313 31.6923 12.7091C30.648 12.187 29.4957 11.9173 28.3281 11.9219C28.0215 11.9219 27.7274 11.8 27.5105 11.5832C27.2937 11.3664 27.1719 11.0723 27.1719 10.7656C27.1719 10.459 27.2937 10.1649 27.5105 9.94802C27.7274 9.73118 28.0215 9.60936 28.3281 9.60936C28.9862 9.60866 29.6305 9.42078 30.1858 9.06766C30.7411 8.71455 31.1845 8.21076 31.4642 7.61511C31.7439 7.01947 31.8484 6.35654 31.7655 5.70372C31.6827 5.0509 31.4158 4.43513 30.9961 3.92828C30.5764 3.42144 30.0212 3.04443 29.3953 2.84129C28.7693 2.63814 28.0985 2.61723 27.4612 2.78099C26.8238 2.94476 26.2462 3.28644 25.7957 3.76616C25.3453 4.24588 25.0406 4.84383 24.9172 5.49022C24.8948 5.64478 24.8412 5.7932 24.7599 5.92652C24.6785 6.05983 24.571 6.17528 24.4437 6.26589C24.3165 6.3565 24.1723 6.4204 24.0197 6.45373C23.8671 6.48706 23.7093 6.48913 23.5559 6.45982C23.4025 6.4305 23.2566 6.37041 23.1271 6.28317C22.9975 6.19593 22.887 6.08334 22.8022 5.95221C22.7173 5.82108 22.6599 5.67412 22.6334 5.52019C22.6069 5.36627 22.6119 5.20857 22.6481 5.05662C22.8196 4.15739 23.2022 3.31174 23.7645 2.58928C24.3267 1.86682 25.0524 1.28821 25.882 0.901064C26.7116 0.513918 27.6212 0.329308 28.5361 0.362428C29.4509 0.395548 30.3448 0.64545 31.1442 1.09157C31.9436 1.53769 32.6256 2.16726 33.1342 2.92849C33.6427 3.68971 33.9632 4.56081 34.0692 5.4701C34.1753 6.37939 34.0639 7.30086 33.7442 8.15869C33.4245 9.01651 32.9057 9.78616 32.2305 10.4043C33.8019 11.0857 35.1674 12.167 36.1906 13.5406C36.2817 13.6621 36.348 13.8003 36.3857 13.9474C36.4234 14.0945 36.4317 14.2476 36.4103 14.3979C36.3888 14.5482 36.3379 14.6928 36.2606 14.8235C36.1832 14.9541 36.0809 15.0683 35.9594 15.1594ZM27.8656 24.7129C27.9961 24.9894 28.0132 25.3061 27.9133 25.5951C27.8134 25.8841 27.6043 26.1225 27.3309 26.2594C27.1714 26.3304 26.9995 26.3697 26.825 26.375C26.6084 26.3735 26.3964 26.3119 26.2126 26.1971C26.0289 26.0822 25.8807 25.9187 25.7844 25.7246C25.1176 24.3607 24.0814 23.2114 22.7936 22.4075C21.5058 21.6036 20.0181 21.1774 18.5 21.1774C16.9819 21.1774 15.4942 21.6036 14.2064 22.4075C12.9186 23.2114 11.8824 24.3607 11.2156 25.7246C11.1493 25.8613 11.0566 25.9836 10.943 26.0845C10.8293 26.1854 10.6969 26.2629 10.5533 26.3126C10.4096 26.3623 10.2576 26.3831 10.1059 26.374C9.9542 26.3648 9.80578 26.3259 9.66915 26.2594C9.39569 26.1225 9.18665 25.8841 9.08671 25.5951C8.98678 25.3061 9.00388 24.9894 9.13438 24.7129C10.2089 22.5003 12.0316 20.7391 14.2797 19.741C13.129 18.859 12.2835 17.6386 11.862 16.2514C11.4406 14.8641 11.4644 13.3797 11.9301 12.0066C12.3957 10.6336 13.2799 9.44093 14.4583 8.59625C15.6367 7.75158 17.0501 7.29733 18.5 7.29733C19.9499 7.29733 21.3633 7.75158 22.5417 8.59625C23.7201 9.44093 24.6043 10.6336 25.0699 12.0066C25.5356 13.3797 25.5594 14.8641 25.138 16.2514C24.7165 17.6386 23.871 18.859 22.7203 19.741C24.9685 20.7391 26.7911 22.5003 27.8656 24.7129ZM18.5 18.8594C19.4147 18.8594 20.3089 18.5881 21.0695 18.0799C21.8301 17.5717 22.4229 16.8494 22.7729 16.0043C23.123 15.1592 23.2146 14.2292 23.0361 13.3321C22.8577 12.4349 22.4172 11.6108 21.7704 10.964C21.1236 10.3172 20.2995 9.87668 19.4023 9.69823C18.5051 9.51977 17.5752 9.61136 16.7301 9.96142C15.885 10.3115 15.1627 10.9043 14.6545 11.6648C14.1463 12.4254 13.875 13.3196 13.875 14.2344C13.8788 15.4598 14.3673 16.634 15.2338 17.5005C16.1004 18.367 17.2746 18.8555 18.5 18.8594ZM9.82813 10.7656C9.82813 10.459 9.70631 10.1649 9.48947 9.94802C9.27263 9.73118 8.97854 9.60936 8.67188 9.60936C8.01382 9.60866 7.36954 9.42078 6.81424 9.06766C6.25895 8.71455 5.81556 8.21076 5.53583 7.61511C5.2561 7.01947 5.15158 6.35654 5.23446 5.70372C5.31734 5.0509 5.58421 4.43513 6.00392 3.92828C6.42362 3.42144 6.97884 3.04443 7.60476 2.84129C8.23067 2.63814 8.90147 2.61723 9.53882 2.78099C10.1762 2.94476 10.7538 3.28644 11.2043 3.76616C11.6547 4.24588 11.9594 4.84383 12.0828 5.49022C12.1053 5.64478 12.1588 5.7932 12.2401 5.92652C12.3215 6.05983 12.4291 6.17528 12.5563 6.26589C12.6835 6.3565 12.8277 6.4204 12.9803 6.45373C13.1329 6.48706 13.2907 6.48913 13.4441 6.45982C13.5975 6.4305 13.7434 6.37041 13.8729 6.28317C14.0025 6.19593 14.113 6.08334 14.1979 5.95221C14.2827 5.82108 14.3401 5.67412 14.3666 5.52019C14.3931 5.36627 14.3881 5.20857 14.352 5.05662C14.1804 4.15739 13.7978 3.31174 13.2356 2.58928C12.6733 1.86682 11.9476 1.28821 11.118 0.901064C10.2884 0.513918 9.3788 0.329308 8.46395 0.362428C7.54909 0.395548 6.65518 0.64545 5.85579 1.09157C5.05639 1.53769 4.37437 2.16726 3.86585 2.92849C3.35733 3.68971 3.03685 4.56081 2.93078 5.4701C2.82472 6.37939 2.93611 7.30086 3.25579 8.15869C3.57546 9.01651 4.09428 9.78616 4.76954 10.4043C3.19807 11.0857 1.83264 12.167 0.80938 13.5406C0.625386 13.7859 0.546383 14.0943 0.589751 14.3979C0.633118 14.7015 0.795304 14.9754 1.04063 15.1594C1.23923 15.3124 1.48368 15.3939 1.73438 15.3906C1.91388 15.3906 2.09092 15.3488 2.25147 15.2685C2.41202 15.1883 2.55168 15.0717 2.65938 14.9281C3.35629 13.9913 4.26341 13.2313 5.30771 12.7091C6.35201 12.187 7.50432 11.9173 8.67188 11.9219C8.97854 11.9219 9.27263 11.8 9.48947 11.5832C9.70631 11.3664 9.82813 11.0723 9.82813 10.7656Z" fill="#8A95BF"/>
</svg>
