<svg width="26" height="26" viewBox="0 0 26 26" fill="none" xmlns="http://www.w3.org/2000/svg">
<path d="M6.5 5.2V1.3C6.5 0.955218 6.63696 0.624558 6.88076 0.380761C7.12456 0.136964 7.45522 0 7.8 0H18.2C18.5448 0 18.8754 0.136964 19.1192 0.380761C19.363 0.624558 19.5 0.955218 19.5 1.3V5.2H24.7C25.0448 5.2 25.3754 5.33696 25.6192 5.58076C25.863 5.82456 26 6.15522 26 6.5V24.7C26 25.0448 25.863 25.3754 25.6192 25.6192C25.3754 25.863 25.0448 26 24.7 26H1.3C0.955218 26 0.624558 25.863 0.380761 25.6192C0.136964 25.3754 0 25.0448 0 24.7V6.5C0 6.15522 0.136964 5.82456 0.380761 5.58076C0.624558 5.33696 0.955218 5.2 1.3 5.2H6.5ZM2.6 19.5V23.4H23.4V19.5H2.6ZM2.6 16.9H23.4V7.8H2.6V16.9ZM9.1 2.6V5.2H16.9V2.6H9.1ZM11.7 13H14.3V15.6H11.7V13Z" fill="#8A95BF"/>
</svg>
