<svg width="637" height="150" viewBox="0 0 637 150" fill="none" xmlns="http://www.w3.org/2000/svg">
<g clip-path="url(#clip0_2_258)">
<path fill-rule="evenodd" clip-rule="evenodd" d="M190.5 51C197.433 42.6667 205.967 38.5 216.1 38.5C226.233 38.5 234.867 42.1333 242 49.4C249.067 56.6 252.6 65.2667 252.6 75.4C252.6 85.5333 249.1 94.2333 242.1 101.5C235.1 108.767 226.633 112.4 216.7 112.4C206.833 112.4 198.1 108.233 190.5 99.9V134.8H180V40.3H190.5V51ZM216.1 102.6C223.1 102.6 229.167 100 234.3 94.8C239.5 89.5333 242.1 83.1667 242.1 75.7C242.1 68.3 239.533 62 234.4 56.8C229.333 51.5333 223.133 48.9 215.8 48.9C208.467 48.9 202.3 51.5 197.3 56.7C192.367 61.7667 189.9 68.1 189.9 75.7C189.9 83.3 192.433 89.7 197.5 94.9C202.633 100.033 208.833 102.6 216.1 102.6Z" fill="#0066F5"/>
<path d="M294 41.4L288.5 50.3C287.033 49.5667 285.633 49.2 284.3 49.2C281.633 49.2 279.233 50.5 277.1 53.1C274.967 55.7 273.333 59.1333 272.2 63.4C271.2 67.5333 270.7 75.1333 270.7 86.2V110.1H260V40.3H270.7V47.9C272.833 44.7 274.967 42.3333 277.1 40.8C279.3 39.2667 281.767 38.5 284.5 38.5C287.367 38.5 290.533 39.4667 294 41.4Z" fill="#0066F5"/>
<path fill-rule="evenodd" clip-rule="evenodd" d="M333.7 38.5C343.767 38.5 352.3 42.1333 359.3 49.4C366.367 56.6667 369.9 65.3667 369.9 75.5C369.9 85.7 366.4 94.4 359.4 101.6C352.467 108.8 343.9 112.4 333.7 112.4C323.433 112.4 314.8 108.8 307.8 101.6C300.8 94.4 297.3 85.7 297.3 75.5C297.3 65.3667 300.8 56.6667 307.8 49.4C314.867 42.1333 323.5 38.5 333.7 38.5ZM333.7 102.3C340.767 102.3 346.767 99.7333 351.7 94.6C356.767 89.4 359.3 83.1667 359.3 75.9C359.3 68.5667 356.733 62.2667 351.6 57C346.533 51.6 340.5 48.9 333.5 48.9C326.633 48.9 320.667 51.6 315.6 57C310.6 62.2667 308.1 68.5667 308.1 75.9C308.1 83.2333 310.533 89.4667 315.4 94.6C320.2 99.7333 326.3 102.3 333.7 102.3Z" fill="#0066F5"/>
<path d="M443 110.1H432.4V76.8C432.4 70.3333 432.167 65.7666 431.7 63.1C431.367 60.4333 430.533 57.9666 429.2 55.7C427.8 53.3 425.9 51.5 423.5 50.3C421.233 49.0333 418.433 48.4 415.1 48.4C411.833 48.4 408.733 49.1666 405.8 50.7C402.8 52.2333 400.233 54.3666 398.1 57.1C395.967 59.8333 394.467 62.7333 393.6 65.8C392.8 68.8666 392.4 75 392.4 84.2V110.1H381.8V14.1H392.4V50.8C399.333 42.6 407.533 38.5 417 38.5C422.067 38.5 426.633 39.8333 430.7 42.5C434.833 45.0333 437.9 48.6333 439.9 53.3C441.967 57.7666 443 64.7666 443 74.3V110.1Z" fill="#0066F5"/>
<path fill-rule="evenodd" clip-rule="evenodd" d="M526.1 77.1H464.9C465.367 84.7667 467.933 90.9333 472.6 95.6C477.4 100.2 483.067 102.5 489.6 102.5C500.8 102.5 509.333 97 515.2 86L524.2 90.6C520.2 98.0667 515.467 103.567 510 107.1C504.533 110.633 498 112.4 490.4 112.4C479.933 112.4 471.267 108.8 464.4 101.6C457.6 94.4 454.2 85.7 454.2 75.5C454.2 65.3667 457.6 56.6667 464.4 49.4C471.333 42.1333 479.867 38.5 490 38.5C500.2 38.5 508.7 41.9667 515.5 48.9C522.3 55.7 525.833 65.1 526.1 77.1ZM514.3 67.7C513.033 61.7667 510.133 57.1333 505.6 53.8C501.133 50.4667 495.933 48.8 490 48.8C478.067 48.8 470.133 55.1 466.2 67.7H514.3Z" fill="#0066F5"/>
<path d="M547.3 110.1H536.8V14.1H547.3V110.1Z" fill="#0066F5"/>
<path fill-rule="evenodd" clip-rule="evenodd" d="M571.8 51C578.667 42.6667 587.2 38.5 597.4 38.5C607.533 38.5 616.133 42.1333 623.2 49.4C630.267 56.6 633.8 65.2667 633.8 75.4C633.8 85.5333 630.3 94.2333 623.3 101.5C616.3 108.767 607.867 112.4 598 112.4C588.133 112.4 579.4 108.233 571.8 99.9V134.8H561.3V40.3H571.8V51ZM597.4 102.6C604.4 102.6 610.433 100 615.5 94.8C620.7 89.5333 623.3 83.1667 623.3 75.7C623.3 68.3 620.767 62 615.7 56.8C610.633 51.5333 604.433 48.9 597.1 48.9C589.767 48.9 583.567 51.5 578.5 56.7C573.567 61.7667 571.1 68.1 571.1 75.7C571.1 83.3 573.667 89.7 578.8 94.9C583.933 100.033 590.133 102.6 597.4 102.6Z" fill="#0066F5"/>
<path d="M190.5 51C197.433 42.6667 205.967 38.5 216.1 38.5C226.233 38.5 234.867 42.1333 242 49.4C249.067 56.6 252.6 65.2667 252.6 75.4C252.6 85.5333 249.1 94.2333 242.1 101.5C235.1 108.767 226.633 112.4 216.7 112.4C206.833 112.4 198.1 108.233 190.5 99.9V134.8H180V40.3H190.5V51ZM197.5 94.9C192.433 89.7 189.9 83.3 189.9 75.7C189.9 68.1 192.367 61.7667 197.3 56.7C202.3 51.5 208.467 48.9 215.8 48.9C223.133 48.9 229.333 51.5333 234.4 56.8C239.533 62 242.1 68.3 242.1 75.7C242.1 83.1667 239.5 89.5334 234.3 94.8C229.167 100 223.1 102.6 216.1 102.6C208.833 102.6 202.633 100.033 197.5 94.9ZM294 41.4L288.5 50.4C287.033 49.6 285.633 49.2 284.3 49.2C281.633 49.2 279.233 50.5333 277.1 53.2C274.967 55.7333 273.333 59.1333 272.2 63.4C271.2 67.6 270.7 75.2 270.7 86.2V110.2H260V40.4H270.7V48C272.833 44.8 274.967 42.4333 277.1 40.9C279.3 39.3667 281.767 38.6 284.5 38.6C287.367 38.6 290.533 39.5333 294 41.4ZM333.7 38.6C343.767 38.6 352.3 42.2333 359.3 49.5C366.367 56.7667 369.9 65.4667 369.9 75.6C369.9 85.7333 366.4 94.4333 359.4 101.7C352.467 108.9 343.9 112.5 333.7 112.5C323.433 112.5 314.8 108.9 307.8 101.7C300.8 94.4333 297.3 85.7333 297.3 75.6C297.3 65.4667 300.8 56.7667 307.8 49.5C314.867 42.2333 323.5 38.6 333.7 38.6V38.6ZM315.4 94.7C310.533 89.5667 308.1 83.3333 308.1 76C308.1 68.6667 310.6 62.3333 315.6 57C320.667 51.6667 326.633 49 333.5 49C340.5 49 346.533 51.6667 351.6 57C356.733 62.3333 359.3 68.6667 359.3 76C359.3 83.2667 356.767 89.5 351.7 94.7C346.767 99.8333 340.767 102.4 333.7 102.4C326.3 102.4 320.2 99.8333 315.4 94.7V94.7ZM443 110.2H432.4V76.9C432.4 70.4333 432.167 65.8667 431.7 63.2C431.367 60.5333 430.533 58.0667 429.2 55.8C427.8 53.4 425.9 51.6 423.5 50.4C421.233 49.1333 418.433 48.5 415.1 48.5C411.833 48.5 408.733 49.2667 405.8 50.8C402.8 52.3333 400.233 54.4667 398.1 57.2C395.967 59.9333 394.467 62.8333 393.6 65.9C392.8 68.9667 392.4 75.1 392.4 84.3V110.2H381.8V14.2H392.4V50.9C399.333 42.7 407.533 38.6 417 38.6C422.067 38.6 426.633 39.9333 430.7 42.6C434.833 45.1333 437.9 48.7 439.9 53.3C441.967 57.8333 443 64.8333 443 74.3V110.2ZM526.1 77.2H464.9C465.367 84.8667 467.933 91.0667 472.6 95.8C477.4 100.4 483.067 102.7 489.6 102.7C500.8 102.7 509.333 97.2 515.2 86.2L524.2 90.8C520.2 98.2 515.467 103.7 510 107.3C504.533 110.767 498 112.5 490.4 112.5C479.933 112.5 471.267 108.933 464.4 101.8C457.6 94.5334 454.2 85.8333 454.2 75.7C454.2 65.5 457.6 56.8 464.4 49.6C471.333 42.3333 479.867 38.7 490 38.7C500.2 38.7 508.7 42.1333 515.5 49C522.3 55.8667 525.833 65.2667 526.1 77.2ZM466.2 67.9C470.133 55.2333 478.067 48.9 490 48.9C495.933 48.9 501.133 50.5667 505.6 53.9C510.133 57.2333 513.033 61.9 514.3 67.9H466.2ZM547.3 110.2H536.8V14.2H547.3V110.2ZM571.8 51.1C578.733 42.8333 587.267 38.7 597.4 38.7C607.533 38.7 616.133 42.3333 623.2 49.6C630.333 56.7333 633.9 65.3667 633.9 75.5C633.9 85.7 630.4 94.4333 623.4 101.7C616.4 108.9 607.933 112.5 598 112.5C588.133 112.5 579.4 108.333 571.8 100V134.9H561.3V40.5H571.8V51.1ZM578.8 95C573.667 89.8 571.1 83.4 571.1 75.8C571.1 68.2 573.6 61.8333 578.6 56.7C583.6 51.5 589.767 48.9 597.1 48.9C604.433 48.9 610.633 51.5333 615.7 56.8C620.833 62 623.4 68.3333 623.4 75.8C623.4 83.2 620.8 89.5334 615.6 94.8C610.467 100.067 604.4 102.7 597.4 102.7C590.133 102.7 583.933 100.133 578.8 95Z" stroke="#0066F5" stroke-width="6"/>
<path d="M75.1 149.1C50.3 149.1 0.8 129.3 0 73.2H75.1V149.1Z" fill="#0066F5"/>
<path d="M37.2 60.4C20.5 60.4 7 46.9 7 30.2C7 13.5 20.5 0 37.2 0C53.9 0 67.4 13.5 67.4 30.2C67.4 46.9 53.9 60.4 37.2 60.4Z" fill="#0066F5"/>
<path opacity="0.9" d="M64.5 73.2H139.6C138.9 129.3 89.3 149.1 64.5 149.1V73.2Z" fill="#0066F5"/>
<path opacity="0.9" d="M82.2 30.2C82.2 13.5 95.7 0 112.5 0C129.2 0 142.7 13.5 142.7 30.2C142.7 46.9 129.2 60.4 112.5 60.4C95.7 60.4 82.2 46.9 82.2 30.2Z" fill="#0066F5"/>
</g>
<defs>
<clipPath id="clip0_2_258">
<rect width="637" height="150" fill="white"/>
</clipPath>
</defs>
</svg>
