<svg width="637" height="150" viewBox="0 0 637 150" fill="none" xmlns="http://www.w3.org/2000/svg">
<g clip-path="url(#clip0_2_244)">
<path d="M313.887 74.6375L317.125 77.875C317.612 78.3625 318.4 78.3625 318.887 77.875L322.125 74.6375C322.912 73.85 322.35 72.5 321.237 72.5H314.762C313.65 72.5 313.1 73.85 313.887 74.6375Z" fill="black"/>
<path fill-rule="evenodd" clip-rule="evenodd" d="M190.5 51.9C197.433 43.5667 205.967 39.4 216.1 39.4C226.233 39.4 234.867 43.0334 242 50.3C249.067 57.5 252.6 66.1667 252.6 76.3C252.6 86.4334 249.1 95.1334 242.1 102.4C235.1 109.667 226.633 113.3 216.7 113.3C206.833 113.3 198.1 109.133 190.5 100.8V135.7H180V41.2H190.5V51.9ZM216.1 103.5C223.1 103.5 229.167 100.9 234.3 95.7C239.5 90.4334 242.1 84.0667 242.1 76.6C242.1 69.2 239.533 62.9 234.4 57.7C229.333 52.4334 223.133 49.8 215.8 49.8C208.467 49.8 202.3 52.4 197.3 57.6C192.367 62.7334 189.9 69.0667 189.9 76.6C189.9 84.2 192.433 90.6 197.5 95.8C202.633 100.933 208.833 103.5 216.1 103.5Z" fill="white"/>
<path d="M294 42.3L288.5 51.2C287.033 50.4667 285.633 50.1 284.3 50.1C281.633 50.1 279.233 51.4 277.1 54C274.967 56.6 273.333 60.0334 272.2 64.3C271.2 68.5 270.7 76.1 270.7 87.1V111H260V41.2H270.7V48.8C272.833 45.6667 274.967 43.3334 277.1 41.8C279.3 40.2 281.767 39.4 284.5 39.4C287.367 39.4 290.533 40.3667 294 42.3Z" fill="white"/>
<path fill-rule="evenodd" clip-rule="evenodd" d="M333.7 39.4C343.767 39.4 352.3 43.0334 359.3 50.3C366.367 57.5667 369.9 66.2667 369.9 76.4C369.9 86.6 366.4 95.3334 359.4 102.6C352.467 109.733 343.9 113.3 333.7 113.3C323.433 113.3 314.8 109.733 307.8 102.6C300.8 95.3334 297.3 86.6 297.3 76.4C297.3 66.2667 300.8 57.5667 307.8 50.3C314.867 43.0334 323.5 39.4 333.7 39.4ZM333.7 103.2C340.767 103.2 346.767 100.633 351.7 95.5C356.767 90.3 359.3 84.0667 359.3 76.8C359.3 69.4667 356.733 63.1667 351.6 57.9C346.533 52.5 340.5 49.8 333.5 49.8C326.633 49.8 320.667 52.5 315.6 57.9C310.6 63.1667 308.1 69.4667 308.1 76.8C308.1 84.1334 310.533 90.3667 315.4 95.5C320.2 100.633 326.3 103.2 333.7 103.2Z" fill="white"/>
<path d="M443 111H432.4V77.7C432.4 71.2333 432.167 66.6667 431.7 64C431.367 61.4 430.533 58.9333 429.2 56.6C427.8 54.2 425.9 52.4 423.5 51.2C421.233 49.9333 418.433 49.3 415.1 49.3C411.833 49.3 408.733 50.0667 405.8 51.6C402.8 53.1333 400.233 55.2667 398.1 58C395.967 60.7333 394.467 63.6333 393.6 66.7C392.8 69.7667 392.4 75.9 392.4 85.1V111H381.8V15H392.4V51.7C399.333 43.5 407.533 39.4 417 39.4C422.067 39.4 426.633 40.7333 430.7 43.4C434.833 46 437.9 49.6 439.9 54.2C441.967 58.7333 443 65.7333 443 75.2V111Z" fill="white"/>
<path fill-rule="evenodd" clip-rule="evenodd" d="M526.1 78H464.9C465.367 85.6667 467.933 91.8334 472.6 96.5C477.4 101.1 483.067 103.4 489.6 103.4C500.8 103.4 509.333 97.9 515.2 86.9L524.2 91.5C520.2 98.9667 515.467 104.5 510 108.1C504.533 111.567 498 113.3 490.4 113.3C479.933 113.3 471.267 109.733 464.4 102.6C457.6 95.3334 454.2 86.6 454.2 76.4C454.2 66.2667 457.6 57.5667 464.4 50.3C471.333 43.0334 479.867 39.4 490 39.4C500.2 39.4 508.7 42.8667 515.5 49.8C522.3 56.6667 525.833 66.0667 526.1 78ZM514.3 68.6C513.033 62.6667 510.133 58.0334 505.6 54.7C501.133 51.3667 495.933 49.7 490 49.7C478.067 49.7 470.133 56 466.2 68.6H514.3Z" fill="white"/>
<path d="M547.3 111H536.8V15H547.3V111Z" fill="white"/>
<path fill-rule="evenodd" clip-rule="evenodd" d="M571.8 51.9C578.667 43.5667 587.2 39.4 597.4 39.4C607.533 39.4 616.133 43.0334 623.2 50.3C630.267 57.5 633.8 66.1667 633.8 76.3C633.8 86.4334 630.3 95.1334 623.3 102.4C616.3 109.667 607.867 113.3 598 113.3C588.133 113.3 579.4 109.133 571.8 100.8V135.7H561.3V41.2H571.8V51.9ZM597.4 103.5C604.4 103.5 610.433 100.9 615.5 95.7C620.7 90.4334 623.3 84.0667 623.3 76.6C623.3 69.2 620.767 62.9 615.7 57.7C610.633 52.4334 604.433 49.8 597.1 49.8C589.767 49.8 583.567 52.4 578.5 57.6C573.567 62.7334 571.1 69.0667 571.1 76.6C571.1 84.2 573.667 90.6 578.8 95.8C583.933 100.933 590.133 103.5 597.4 103.5Z" fill="white"/>
<path d="M190.5 51.9C197.433 43.5666 205.967 39.4 216.1 39.4C226.233 39.4 234.867 43.0333 242 50.3C249.067 57.5 252.6 66.1666 252.6 76.3C252.6 86.4333 249.1 95.1333 242.1 102.4C235.1 109.667 226.633 113.3 216.7 113.3C206.833 113.3 198.1 109.133 190.5 100.8V135.7H180V41.2H190.5V51.9ZM197.5 95.8C192.433 90.6 189.9 84.2 189.9 76.6C189.9 69.0666 192.367 62.7333 197.3 57.6C202.3 52.4 208.467 49.8 215.8 49.8C223.133 49.8 229.333 52.4333 234.4 57.7C239.533 62.9 242.1 69.2 242.1 76.6C242.1 84.0666 239.5 90.4333 234.3 95.7C229.167 100.9 223.1 103.5 216.1 103.5C208.833 103.5 202.633 100.933 197.5 95.8V95.8ZM294 42.3L288.5 51.3C287.033 50.5 285.633 50.1 284.3 50.1C281.633 50.1 279.233 51.4333 277.1 54.1C274.967 56.7 273.333 60.1333 272.2 64.4C271.2 68.5333 270.7 76.1 270.7 87.1V111.1H260V41.3H270.7V48.9C272.833 45.7 274.967 43.3333 277.1 41.8C279.3 40.2666 281.767 39.5 284.5 39.5C287.367 39.5 290.533 40.4333 294 42.3ZM333.7 39.5C343.767 39.5 352.3 43.1333 359.3 50.4C366.367 57.6666 369.9 66.3666 369.9 76.5C369.9 86.6333 366.4 95.3333 359.4 102.6C352.467 109.8 343.9 113.4 333.7 113.4C323.433 113.4 314.8 109.8 307.8 102.6C300.8 95.3333 297.3 86.6333 297.3 76.5C297.3 66.3666 300.8 57.6666 307.8 50.4C314.867 43.1333 323.5 39.5 333.7 39.5V39.5ZM315.4 95.6C310.533 90.4666 308.1 84.2333 308.1 76.9C308.1 69.5666 310.6 63.2666 315.6 58C320.667 52.6 326.633 49.9 333.5 49.9C340.5 49.9 346.533 52.6 351.6 58C356.733 63.2666 359.3 69.5666 359.3 76.9C359.3 84.1666 356.767 90.4 351.7 95.6C346.767 100.733 340.767 103.3 333.7 103.3C326.3 103.3 320.2 100.733 315.4 95.6V95.6ZM443 111.1H432.4V77.8C432.4 71.3333 432.167 66.7666 431.7 64.1C431.367 61.4333 430.533 58.9666 429.2 56.7C427.8 54.3 425.9 52.5 423.5 51.3C421.233 50.0333 418.433 49.4 415.1 49.4C411.833 49.4 408.733 50.1666 405.8 51.7C402.8 53.2333 400.233 55.3666 398.1 58.1C395.967 60.8333 394.467 63.7333 393.6 66.8C392.8 69.8666 392.4 76 392.4 85.2V111.1H381.8V15.1H392.4V51.8C399.333 43.6 407.533 39.5 417 39.5C422.067 39.5 426.633 40.8333 430.7 43.5C434.833 46.0333 437.9 49.6 439.9 54.2C441.967 58.7333 443 65.7333 443 75.2V111.1ZM526.1 78.1H464.9C465.367 85.7666 467.933 91.9666 472.6 96.7C477.4 101.3 483.067 103.6 489.6 103.6C500.8 103.6 509.333 98.1 515.2 87.1L524.2 91.7C520.2 99.1 515.467 104.6 510 108.2C504.533 111.667 498 113.4 490.4 113.4C479.933 113.4 471.267 109.833 464.4 102.7C457.6 95.4333 454.2 86.7333 454.2 76.6C454.2 66.4 457.6 57.7 464.4 50.5C471.333 43.2333 479.867 39.6 490 39.6C500.2 39.6 508.7 43.0666 515.5 50C522.3 56.8 525.833 66.1666 526.1 78.1ZM466.2 68.8C470.133 56.1333 478.067 49.8 490 49.8C495.933 49.8 501.133 51.4666 505.6 54.8C510.133 58.1333 513.033 62.8 514.3 68.8H466.2ZM547.3 111.1H536.8V15.1H547.3V111.1ZM571.8 52C578.733 43.7333 587.267 39.6 597.4 39.6C607.533 39.6 616.133 43.2333 623.2 50.5C630.333 57.6333 633.9 66.2666 633.9 76.4C633.9 86.6 630.4 95.3333 623.4 102.6C616.4 109.8 607.933 113.4 598 113.4C588.133 113.4 579.4 109.233 571.8 100.9V135.8H561.3V41.4H571.8V52ZM578.8 95.9C573.667 90.7 571.1 84.3 571.1 76.7C571.1 69.1 573.6 62.7333 578.6 57.6C583.6 52.4 589.767 49.8 597.1 49.8C604.433 49.8 610.633 52.4333 615.7 57.7C620.833 62.9 623.4 69.2333 623.4 76.7C623.4 84.1 620.8 90.4666 615.6 95.8C610.467 101 604.4 103.6 597.4 103.6C590.133 103.6 583.933 101.033 578.8 95.9V95.9Z" stroke="white" stroke-width="6"/>
<path d="M75.1 150C50.3 150 0.8 130.2 0 74.1H75.1V150Z" fill="white"/>
<path d="M67.4 31.1C67.4 47.8 53.9 61.3 37.2 61.3C20.5 61.3 7 47.8 7 31.1C7 14.4 20.5 0.900024 37.2 0.900024C53.9 0.900024 67.4 14.4 67.4 31.1Z" fill="white"/>
<path opacity="0.9" d="M74.5 74.1H149.6C148.9 130.3 99.3 150 74.5 150V74.1Z" fill="white"/>
<path opacity="0.9" d="M112.5 0.900024C129.1 0.900024 142.7 14.4 142.7 31.1C142.7 47.8 129.1 61.3 112.5 61.3C95.8 61.3 82.2 47.8 82.2 31.1C82.2 14.4 95.8 0.900024 112.5 0.900024Z" fill="white"/>
</g>
<defs>
<clipPath id="clip0_2_244">
<rect width="637" height="150" fill="white"/>
</clipPath>
</defs>
</svg>
