<svg width="29" height="28" viewBox="0 0 29 28" fill="none" xmlns="http://www.w3.org/2000/svg">
<circle cx="14.4642" cy="13.5448" r="13.5448" fill="#0066F5" fill-opacity="0.15"/>
<path d="M14.8898 15.5139H15.7412M18.721 13.8111V12.9597C18.721 12.7339 18.6313 12.5173 18.4717 12.3577C18.312 12.198 18.0954 12.1083 17.8696 12.1083H9.35578C9.12998 12.1083 8.91343 12.198 8.75376 12.3577C8.59409 12.5173 8.50439 12.7339 8.50439 12.9597V18.068C8.50439 18.2938 8.59409 18.5104 8.75376 18.67C8.91343 18.8297 9.12998 18.9194 9.35578 18.9194H17.8696C18.0954 18.9194 18.312 18.8297 18.4717 18.67C18.6313 18.5104 18.721 18.2938 18.721 18.068V17.2166V13.8111ZM18.721 13.8111H15.3155C14.8639 13.8111 14.4308 13.9905 14.1114 14.3098C13.7921 14.6291 13.6127 15.0623 13.6127 15.5139C13.6127 15.9655 13.7921 16.3986 14.1114 16.7179C14.4308 17.0372 14.8639 17.2166 15.3155 17.2166H18.721V13.8111ZM18.721 13.8111C19.1726 13.8111 19.6057 13.9905 19.9251 14.3098C20.2444 14.6291 20.4238 15.0623 20.4238 15.5139C20.4238 15.9655 20.2444 16.3986 19.9251 16.7179C19.6057 17.0372 19.1726 17.2166 18.721 17.2166V13.8111ZM11.0586 12.1083V9.55416C11.0586 8.87675 11.3277 8.22709 11.8066 7.7481C12.2856 7.2691 12.9353 7 13.6127 7C14.2901 7 14.9398 7.2691 15.4188 7.7481C15.8978 8.22709 16.1669 8.87675 16.1669 9.55416V12.1083H11.0586ZM18.2953 15.5139H19.1467H18.2953ZM16.5926 15.5139H17.4439H16.5926Z" stroke="#007AFF"/>
</svg>
