<svg width="29" height="28" viewBox="0 0 29 28" fill="none" xmlns="http://www.w3.org/2000/svg">
<circle cx="14.4642" cy="13.5448" r="13.5448" fill="#0066F5" fill-opacity="0.15"/>
<path d="M19.9562 17.6115C19.6572 16.8816 19.2233 16.2186 18.6787 15.6594C18.1357 15.0986 17.4925 14.6515 16.7846 14.3428C16.7782 14.3395 16.7719 14.3379 16.7655 14.3346C17.753 13.5995 18.3949 12.4021 18.3949 11.0512C18.3949 8.81323 16.6356 7 14.4641 7C12.2926 7 10.5333 8.81323 10.5333 11.0512C10.5333 12.4021 11.1752 13.5995 12.1627 14.3362C12.1563 14.3395 12.15 14.3411 12.1436 14.3444C11.4335 14.6531 10.7964 15.0958 10.2495 15.661C9.70542 16.2206 9.27159 16.8835 8.97201 17.6131C8.67771 18.3274 8.51899 19.0932 8.50443 19.869C8.50401 19.8865 8.50698 19.9038 8.51316 19.92C8.51934 19.9363 8.52862 19.9511 8.54043 19.9636C8.55225 19.976 8.56637 19.986 8.58197 19.9927C8.59756 19.9995 8.61431 20.003 8.63124 20.003H9.58225C9.65199 20.003 9.70746 19.9458 9.70905 19.8756C9.74075 18.6145 10.2321 17.4334 11.1007 16.5382C11.9994 15.612 13.1929 15.1024 14.4641 15.1024C15.7353 15.1024 16.9288 15.612 17.8275 16.5382C18.6961 17.4334 19.1874 18.6145 19.2191 19.8756C19.2207 19.9474 19.2762 20.003 19.3459 20.003H20.297C20.3139 20.003 20.3306 19.9995 20.3462 19.9927C20.3618 19.986 20.3759 19.976 20.3878 19.9636C20.3996 19.9511 20.4088 19.9363 20.415 19.92C20.4212 19.9038 20.4242 19.8865 20.4238 19.869C20.4079 19.0882 20.251 18.3286 19.9562 17.6115ZM14.4641 13.8609C13.7366 13.8609 13.0518 13.5685 12.5367 13.0376C12.0216 12.5067 11.7379 11.801 11.7379 11.0512C11.7379 10.3014 12.0216 9.5957 12.5367 9.0648C13.0518 8.53389 13.7366 8.24149 14.4641 8.24149C15.1916 8.24149 15.8763 8.53389 16.3915 9.0648C16.9066 9.5957 17.1903 10.3014 17.1903 11.0512C17.1903 11.801 16.9066 12.5067 16.3915 13.0376C15.8763 13.5685 15.1916 13.8609 14.4641 13.8609Z" fill="#007AFF"/>
</svg>
