<svg width="158" height="158" viewBox="0 0 158 158" fill="none" xmlns="http://www.w3.org/2000/svg">
<circle cx="79" cy="79" r="79" fill="#0066F5" fill-opacity="0.1"/>
<path d="M93.5832 64.4167H108.167V93.5834H93.5832V99.4167C93.5832 100.19 93.8905 100.932 94.4375 101.479C94.9845 102.026 95.7264 102.333 96.4999 102.333H102.333V108.167H95.0416C93.4374 108.167 90.6666 106.854 90.6666 105.25C90.6666 106.854 87.8957 108.167 86.2916 108.167H78.9999V102.333H84.8333C85.6068 102.333 86.3487 102.026 86.8956 101.479C87.4426 100.932 87.7499 100.19 87.7499 99.4167V58.5834C87.7499 57.8098 87.4426 57.068 86.8956 56.521C86.3487 55.974 85.6068 55.6667 84.8333 55.6667H78.9999V49.8334H86.2916C87.8957 49.8334 90.6666 51.1459 90.6666 52.75C90.6666 51.1459 93.4374 49.8334 95.0416 49.8334H102.333V55.6667H96.4999C95.7264 55.6667 94.9845 55.974 94.4375 56.521C93.8905 57.068 93.5832 57.8098 93.5832 58.5834V64.4167ZM49.8333 64.4167H81.9166V70.25H55.6666V87.75H81.9166V93.5834H49.8333V64.4167ZM102.333 87.75V70.25H93.5832V87.75H102.333ZM68.7916 79C68.7916 77.8397 68.3306 76.7269 67.5102 75.9064C66.6897 75.086 65.5769 74.625 64.4166 74.625C63.2563 74.625 62.1435 75.086 61.323 75.9064C60.5025 76.7269 60.0416 77.8397 60.0416 79C60.0416 80.1604 60.5025 81.2732 61.323 82.0936C62.1435 82.9141 63.2563 83.375 64.4166 83.375C65.5769 83.375 66.6897 82.9141 67.5102 82.0936C68.3306 81.2732 68.7916 80.1604 68.7916 79ZM81.9166 75.7625C80.1374 74.1292 77.3666 74.275 75.7333 76.0834C74.0999 77.8334 74.2458 80.6042 76.0833 82.2375C77.6874 83.7542 80.2541 83.7542 81.9166 82.2375V75.7625Z" fill="#0066F5"/>
</svg>
