<svg width="27" height="27" viewBox="0 0 27 27" fill="none" xmlns="http://www.w3.org/2000/svg">
<circle cx="13.5" cy="13.5" r="13.5" fill="#0066F5" fill-opacity="0.15"/>
<path d="M13.5 8C10.4673 8 8 10.6916 8 14V16.4858C8 17.1002 8.49335 17.6 9.1 17.6H9.65C9.79587 17.6 9.93576 17.5368 10.0389 17.4243C10.1421 17.3117 10.2 17.1591 10.2 17V13.9142C10.2 13.7551 10.1421 13.6025 10.0389 13.4899C9.93576 13.3774 9.79587 13.3142 9.65 13.3142H9.1506C9.4564 10.9922 11.2879 9.2 13.5 9.2C15.7121 9.2 17.5436 10.9922 17.8494 13.3142H17.35C17.2041 13.3142 17.0642 13.3774 16.9611 13.4899C16.8579 13.6025 16.8 13.7551 16.8 13.9142V17.6C16.8 18.2618 16.3067 18.8 15.7 18.8H14.6V18.2H12.4V20H15.7C16.9133 20 17.9 18.9236 17.9 17.6C18.5066 17.6 19 17.1002 19 16.4858V14C19 10.6916 16.5327 8 13.5 8Z" fill="#007AFF"/>
</svg>
