<svg width="158" height="158" viewBox="0 0 158 158" fill="none" xmlns="http://www.w3.org/2000/svg">
<circle cx="79" cy="79" r="79" fill="#0066F5" fill-opacity="0.1"/>
<path d="M79 108.167L78.2708 99.4167H77.5417C70.6389 99.4167 64.7812 97.0105 59.9687 92.198C55.1562 87.3855 52.75 81.5278 52.75 74.625C52.75 67.7223 55.1562 61.8646 59.9687 57.0521C64.7812 52.2396 70.6389 49.8334 77.5417 49.8334C80.9931 49.8334 84.2131 50.477 87.2017 51.7642C90.1922 53.0534 92.8182 54.8277 95.0796 57.0871C97.339 59.3485 99.1124 61.9735 100.4 64.9621C101.689 67.9527 102.333 71.1737 102.333 74.625C102.333 82.0139 100.122 88.6367 95.6979 94.4934C91.2743 100.352 85.7083 104.91 79 108.167ZM77.4688 90.5938C78.2951 90.5938 79 90.3021 79.5833 89.7188C80.1667 89.1355 80.4583 88.4306 80.4583 87.6042C80.4583 86.7778 80.1667 86.073 79.5833 85.4896C79 84.9063 78.2951 84.6146 77.4688 84.6146C76.6424 84.6146 75.9375 84.9063 75.3542 85.4896C74.7708 86.073 74.4792 86.7778 74.4792 87.6042C74.4792 88.4306 74.7708 89.1355 75.3542 89.7188C75.9375 90.3021 76.6424 90.5938 77.4688 90.5938ZM77.5417 81.3334C78.0764 81.3334 78.5625 81.1389 79 80.75C79.4375 80.3612 79.7292 79.8264 79.875 79.1459C79.9722 78.5139 80.2396 77.9423 80.6771 77.4309C81.1146 76.9214 81.8681 76.132 82.9375 75.0625C83.8125 74.1875 84.5417 73.2396 85.125 72.2188C85.7083 71.198 86 70.1042 86 68.9375C86 66.4584 85.1619 64.5985 83.4858 63.358C81.8078 62.1193 79.8264 61.5 77.5417 61.5C75.8403 61.5 74.3703 61.8889 73.1317 62.6667C71.8911 63.4445 70.8819 64.4167 70.1042 65.5834C69.7639 66.1181 69.7026 66.6771 69.9204 67.2605C70.1401 67.8438 70.5903 68.257 71.2708 68.5C71.7569 68.6945 72.2431 68.6945 72.7292 68.5C73.2153 68.3056 73.6528 67.941 74.0417 67.4063C74.4306 66.8716 74.905 66.4341 75.465 66.0938C76.0231 65.7535 76.7153 65.5834 77.5417 65.5834C78.8542 65.5834 79.839 65.948 80.4962 66.6771C81.1515 67.4063 81.4792 68.2084 81.4792 69.0834C81.4792 69.9098 81.2361 70.6506 80.75 71.3059C80.2639 71.9631 79.6806 72.632 79 73.3125C77.6389 74.4792 76.7269 75.4271 76.2642 76.1563C75.8033 76.8855 75.5243 77.882 75.4271 79.1459C75.3785 79.7292 75.5612 80.2396 75.9754 80.6771C76.3876 81.1146 76.9097 81.3334 77.5417 81.3334ZM84.8333 93.5834V97.5209C88.2847 94.6042 91.0915 91.1898 93.2537 87.2775C95.4179 83.3634 96.5 79.1459 96.5 74.625C96.5 69.3264 94.6654 64.8416 90.9963 61.1705C87.3251 57.5013 82.8403 55.6667 77.5417 55.6667C72.2431 55.6667 67.7592 57.5013 64.09 61.1705C60.4189 64.8416 58.5833 69.3264 58.5833 74.625C58.5833 79.9237 60.4189 84.4085 64.09 88.0796C67.7592 91.7488 72.2431 93.5834 77.5417 93.5834H84.8333Z" fill="#0066F5"/>
</svg>
