<svg width="70" height="70" viewBox="0 0 70 70" fill="none" xmlns="http://www.w3.org/2000/svg">
<path d="M35 64.1667L34.2708 55.4167H33.5417C26.6389 55.4167 20.7812 53.0105 15.9687 48.198C11.1562 43.3855 8.75 37.5278 8.75 30.625C8.75 23.7223 11.1562 17.8646 15.9687 13.0521C20.7812 8.23962 26.6389 5.83337 33.5417 5.83337C36.9931 5.83337 40.2131 6.47698 43.2017 7.76421C46.1922 9.05337 48.8182 10.8277 51.0796 13.0871C53.339 15.3485 55.1124 17.9735 56.3996 20.9621C57.6887 23.9527 58.3333 27.1737 58.3333 30.625C58.3333 38.0139 56.1215 44.6367 51.6979 50.4934C47.2743 56.352 41.7083 60.9098 35 64.1667ZM33.4688 46.5938C34.2951 46.5938 35 46.3021 35.5833 45.7188C36.1667 45.1355 36.4583 44.4306 36.4583 43.6042C36.4583 42.7778 36.1667 42.073 35.5833 41.4896C35 40.9063 34.2951 40.6146 33.4688 40.6146C32.6424 40.6146 31.9375 40.9063 31.3542 41.4896C30.7708 42.073 30.4792 42.7778 30.4792 43.6042C30.4792 44.4306 30.7708 45.1355 31.3542 45.7188C31.9375 46.3021 32.6424 46.5938 33.4688 46.5938ZM33.5417 37.3334C34.0764 37.3334 34.5625 37.1389 35 36.75C35.4375 36.3612 35.7292 35.8264 35.875 35.1459C35.9722 34.5139 36.2396 33.9423 36.6771 33.4309C37.1146 32.9214 37.8681 32.132 38.9375 31.0625C39.8125 30.1875 40.5417 29.2396 41.125 28.2188C41.7083 27.198 42 26.1042 42 24.9375C42 22.4584 41.1619 20.5985 39.4858 19.358C37.8078 18.1193 35.8264 17.5 33.5417 17.5C31.8403 17.5 30.3703 17.8889 29.1317 18.6667C27.8911 19.4445 26.8819 20.4167 26.1042 21.5834C25.7639 22.1181 25.7026 22.6771 25.9204 23.2605C26.1401 23.8438 26.5903 24.257 27.2708 24.5C27.7569 24.6945 28.2431 24.6945 28.7292 24.5C29.2153 24.3056 29.6528 23.941 30.0417 23.4063C30.4306 22.8716 30.905 22.4341 31.465 22.0938C32.0231 21.7535 32.7153 21.5834 33.5417 21.5834C34.8542 21.5834 35.839 21.948 36.4962 22.6771C37.1515 23.4063 37.4792 24.2084 37.4792 25.0834C37.4792 25.9098 37.2361 26.6506 36.75 27.3059C36.2639 27.9631 35.6806 28.632 35 29.3125C33.6389 30.4792 32.7269 31.4271 32.2642 32.1563C31.8033 32.8855 31.5243 33.882 31.4271 35.1459C31.3785 35.7292 31.5612 36.2396 31.9754 36.6771C32.3876 37.1146 32.9097 37.3334 33.5417 37.3334ZM40.8333 49.5834V53.5209C44.2847 50.6042 47.0915 47.1898 49.2537 43.2775C51.4179 39.3634 52.5 35.1459 52.5 30.625C52.5 25.3264 50.6654 20.8416 46.9963 17.1705C43.3251 13.5013 38.8403 11.6667 33.5417 11.6667C28.2431 11.6667 23.7592 13.5013 20.09 17.1705C16.4189 20.8416 14.5833 25.3264 14.5833 30.625C14.5833 35.9237 16.4189 40.4085 20.09 44.0796C23.7592 47.7488 28.2431 49.5834 33.5417 49.5834H40.8333Z" fill="#8A95BF"/>
</svg>
