<svg width="37" height="37" viewBox="0 0 37 37" fill="none" xmlns="http://www.w3.org/2000/svg">
<path opacity="0.2" d="M24.2813 20.2344C24.2813 21.3778 23.9422 22.4955 23.3069 23.4463C22.6717 24.397 21.7688 25.138 20.7124 25.5756C19.656 26.0131 18.4936 26.1276 17.3721 25.9045C16.2507 25.6815 15.2206 25.1309 14.412 24.3223C13.6035 23.5138 13.0529 22.4837 12.8298 21.3622C12.6068 20.2408 12.7213 19.0784 13.1588 18.022C13.5964 16.9656 14.3374 16.0627 15.2881 15.4274C16.2388 14.7922 17.3566 14.4531 18.5 14.4531C20.0333 14.4531 21.5038 15.0622 22.588 16.1464C23.6722 17.2306 24.2813 18.7011 24.2813 20.2344ZM8.67188 7.51562C7.75714 7.51563 6.86294 7.78688 6.10236 8.29508C5.34179 8.80328 4.74899 9.52561 4.39893 10.3707C4.04888 11.2158 3.95729 12.1458 4.13575 13.0429C4.3142 13.9401 4.75469 14.7642 5.40151 15.411C6.04833 16.0578 6.87242 16.4983 7.76958 16.6768C8.66675 16.8552 9.59668 16.7636 10.4418 16.4136C11.2869 16.0635 12.0092 15.4707 12.5174 14.7101C13.0256 13.9496 13.2969 13.0554 13.2969 12.1406C13.2969 10.914 12.8096 9.73761 11.9422 8.87026C11.0749 8.0029 9.8985 7.51563 8.67188 7.51562ZM28.3281 7.51562C27.4134 7.51563 26.5192 7.78688 25.7586 8.29508C24.998 8.80328 24.4052 9.52561 24.0552 10.3707C23.7051 11.2158 23.6135 12.1458 23.792 13.0429C23.9705 13.9401 24.4109 14.7642 25.0578 15.411C25.7046 16.0578 26.5287 16.4983 27.4258 16.6768C28.323 16.8552 29.2529 16.7636 30.098 16.4136C30.9431 16.0635 31.6655 15.4707 32.1737 14.7101C32.6819 13.9496 32.9531 13.0554 32.9531 12.1406C32.9531 10.914 32.4659 9.73761 31.5985 8.87026C30.7311 8.0029 29.5548 7.51563 28.3281 7.51562Z" fill="#8A95BF"/>
<path d="M35.9594 21.1594C35.7608 21.3124 35.5163 21.3939 35.2656 21.3906C35.0861 21.3906 34.9091 21.3488 34.7485 21.2685C34.588 21.1883 34.4483 21.0717 34.3406 20.9281C33.6437 19.9913 32.7366 19.2313 31.6923 18.7091C30.648 18.187 29.4957 17.9173 28.3281 17.9219C28.0215 17.9219 27.7274 17.8 27.5105 17.5832C27.2937 17.3664 27.1719 17.0723 27.1719 16.7656C27.1719 16.459 27.2937 16.1649 27.5105 15.948C27.7274 15.7312 28.0215 15.6094 28.3281 15.6094C28.9862 15.6087 29.6305 15.4208 30.1858 15.0677C30.7411 14.7145 31.1845 14.2108 31.4642 13.6151C31.7439 13.0195 31.8484 12.3565 31.7655 11.7037C31.6827 11.0509 31.4158 10.4351 30.9961 9.92828C30.5764 9.42144 30.0212 9.04443 29.3953 8.84129C28.7693 8.63814 28.0985 8.61723 27.4612 8.78099C26.8238 8.94476 26.2462 9.28644 25.7957 9.76616C25.3453 10.2459 25.0406 10.8438 24.9172 11.4902C24.8948 11.6448 24.8412 11.7932 24.7599 11.9265C24.6785 12.0598 24.571 12.1753 24.4437 12.2659C24.3165 12.3565 24.1723 12.4204 24.0197 12.4537C23.8671 12.4871 23.7093 12.4891 23.5559 12.4598C23.4025 12.4305 23.2566 12.3704 23.1271 12.2832C22.9975 12.1959 22.887 12.0833 22.8022 11.9522C22.7173 11.8211 22.6599 11.6741 22.6334 11.5202C22.6069 11.3663 22.6119 11.2086 22.6481 11.0566C22.8196 10.1574 23.2022 9.31174 23.7645 8.58928C24.3267 7.86682 25.0524 7.28821 25.882 6.90106C26.7116 6.51392 27.6212 6.32931 28.5361 6.36243C29.4509 6.39555 30.3448 6.64545 31.1442 7.09157C31.9436 7.53769 32.6256 8.16726 33.1342 8.92849C33.6427 9.68971 33.9632 10.5608 34.0692 11.4701C34.1753 12.3794 34.0639 13.3009 33.7442 14.1587C33.4245 15.0165 32.9057 15.7862 32.2305 16.4043C33.8019 17.0857 35.1674 18.167 36.1906 19.5406C36.2817 19.6621 36.348 19.8003 36.3857 19.9474C36.4234 20.0945 36.4317 20.2476 36.4103 20.3979C36.3888 20.5482 36.3379 20.6928 36.2606 20.8235C36.1832 20.9541 36.0809 21.0683 35.9594 21.1594ZM27.8656 30.7129C27.9961 30.9894 28.0132 31.3061 27.9133 31.5951C27.8134 31.8841 27.6043 32.1225 27.3309 32.2594C27.1714 32.3304 26.9995 32.3697 26.825 32.375C26.6084 32.3735 26.3964 32.3119 26.2126 32.1971C26.0289 32.0822 25.8807 31.9187 25.7844 31.7246C25.1176 30.3607 24.0814 29.2114 22.7936 28.4075C21.5058 27.6036 20.0181 27.1774 18.5 27.1774C16.9819 27.1774 15.4942 27.6036 14.2064 28.4075C12.9186 29.2114 11.8824 30.3607 11.2156 31.7246C11.1493 31.8613 11.0566 31.9836 10.943 32.0845C10.8293 32.1854 10.6969 32.2629 10.5533 32.3126C10.4096 32.3623 10.2576 32.3831 10.1059 32.374C9.9542 32.3648 9.80578 32.3259 9.66915 32.2594C9.39569 32.1225 9.18665 31.8841 9.08671 31.5951C8.98678 31.3061 9.00388 30.9894 9.13438 30.7129C10.2089 28.5003 12.0316 26.7391 14.2797 25.741C13.129 24.859 12.2835 23.6386 11.862 22.2514C11.4406 20.8641 11.4644 19.3797 11.9301 18.0066C12.3957 16.6336 13.2799 15.4409 14.4583 14.5963C15.6367 13.7516 17.0501 13.2973 18.5 13.2973C19.9499 13.2973 21.3633 13.7516 22.5417 14.5963C23.7201 15.4409 24.6043 16.6336 25.0699 18.0066C25.5356 19.3797 25.5594 20.8641 25.138 22.2514C24.7165 23.6386 23.871 24.859 22.7203 25.741C24.9685 26.7391 26.7911 28.5003 27.8656 30.7129ZM18.5 24.8594C19.4147 24.8594 20.3089 24.5881 21.0695 24.0799C21.8301 23.5717 22.4229 22.8494 22.7729 22.0043C23.123 21.1592 23.2146 20.2292 23.0361 19.3321C22.8577 18.4349 22.4172 17.6108 21.7704 16.964C21.1236 16.3172 20.2995 15.8767 19.4023 15.6982C18.5051 15.5198 17.5752 15.6114 16.7301 15.9614C15.885 16.3115 15.1627 16.9043 14.6545 17.6648C14.1463 18.4254 13.875 19.3196 13.875 20.2344C13.8788 21.4598 14.3673 22.634 15.2338 23.5005C16.1004 24.367 17.2746 24.8555 18.5 24.8594ZM9.82813 16.7656C9.82813 16.459 9.70631 16.1649 9.48947 15.948C9.27263 15.7312 8.97854 15.6094 8.67188 15.6094C8.01382 15.6087 7.36954 15.4208 6.81424 15.0677C6.25895 14.7145 5.81556 14.2108 5.53583 13.6151C5.2561 13.0195 5.15158 12.3565 5.23446 11.7037C5.31734 11.0509 5.58421 10.4351 6.00392 9.92828C6.42362 9.42144 6.97884 9.04443 7.60476 8.84129C8.23067 8.63814 8.90147 8.61723 9.53882 8.78099C10.1762 8.94476 10.7538 9.28644 11.2043 9.76616C11.6547 10.2459 11.9594 10.8438 12.0828 11.4902C12.1053 11.6448 12.1588 11.7932 12.2401 11.9265C12.3215 12.0598 12.4291 12.1753 12.5563 12.2659C12.6835 12.3565 12.8277 12.4204 12.9803 12.4537C13.1329 12.4871 13.2907 12.4891 13.4441 12.4598C13.5975 12.4305 13.7434 12.3704 13.8729 12.2832C14.0025 12.1959 14.113 12.0833 14.1979 11.9522C14.2827 11.8211 14.3401 11.6741 14.3666 11.5202C14.3931 11.3663 14.3881 11.2086 14.352 11.0566C14.1804 10.1574 13.7978 9.31174 13.2356 8.58928C12.6733 7.86682 11.9476 7.28821 11.118 6.90106C10.2884 6.51392 9.3788 6.32931 8.46395 6.36243C7.54909 6.39555 6.65518 6.64545 5.85579 7.09157C5.05639 7.53769 4.37437 8.16726 3.86585 8.92849C3.35733 9.68971 3.03685 10.5608 2.93078 11.4701C2.82472 12.3794 2.93611 13.3009 3.25579 14.1587C3.57546 15.0165 4.09428 15.7862 4.76954 16.4043C3.19807 17.0857 1.83264 18.167 0.80938 19.5406C0.625386 19.7859 0.546383 20.0943 0.589751 20.3979C0.633118 20.7015 0.795304 20.9754 1.04063 21.1594C1.23923 21.3124 1.48368 21.3939 1.73438 21.3906C1.91388 21.3906 2.09092 21.3488 2.25147 21.2685C2.41202 21.1883 2.55168 21.0717 2.65938 20.9281C3.35629 19.9913 4.26341 19.2313 5.30771 18.7091C6.35201 18.187 7.50432 17.9173 8.67188 17.9219C8.97854 17.9219 9.27263 17.8 9.48947 17.5832C9.70631 17.3664 9.82813 17.0723 9.82813 16.7656Z" fill="#8A95BF"/>
</svg>
